#!OML:ASF G:\JayActor3\Patient Classification 1\Patient 1\Session 5\male.ASF
:FULLY-SPECIFIED
:DEGREES
565
root 14.8272 16.1102 -5.1543 167.385 86.9109 146.018
lowerback 25.3406 -1.95056 2.14385
upperback 6.14878 -1.53788 -0.738524
thorax -7.34102 -0.560604 -1.59347
lowerneck 3.99946 -0.932522 0.0302427
upperneck -10.5652 -0.930091 2.27421
head -4.16153 -0.527296 0.796934
rclavicle -3.61167e-014 -5.11622e-014
rhumerus -33.7094 -0.101555 -87.9139
rradius 32.1917
rwrist -2.58763
rhand -21.6147 -7.91079
rfingers 7.12502
rthumb 4.78086 -37.8368
lclavicle -3.61167e-014 -5.11622e-014
lhumerus -33.7898 -1.38095 87.7816
lradius 30.2396
lwrist 25.452
lhand -18.0438 8.11378
lfingers 7.12502
lthumb 8.22809 37.9336
rfemur -57.6267 6.97284 20.1262
rtibia 52.834
rfoot -15.7698 -12.8751
rtoes 13.7687
lfemur -24.3498 3.9069 -17.7911
ltibia 62.5856
lfoot -8.24978 -9.30827
ltoes -7.44387
566
root 14.9657 16.1411 -5.13355 170.484 86.8401 148.873
lowerback 25.2481 -1.91543 2.17524
upperback 6.1025 -1.48564 -0.663904
thorax -7.34209 -0.538725 -1.54622
lowerneck 3.98943 -0.955125 0.0570389
upperneck -10.5527 -0.954316 2.31688
head -4.15476 -0.54223 0.807412
rclavicle 1.94064e-014 4.24964e-014
rhumerus -33.7207 -0.172051 -87.8565
rradius 32.1659
rwrist -2.56255
rhand -21.7195 -7.95471
rfingers 7.12502
rthumb 4.67967 -37.883
lclavicle 1.94064e-014 4.24964e-014
lhumerus -33.7607 -1.57985 87.9701
lradius 30.2542
lwrist 25.302
lhand -17.7538 8.25407
lfingers 7.12502
lthumb 8.50796 38.0627
rfemur -57.1951 6.77549 20.4884
rtibia 52.6632
rfoot -16.1234 -12.619
rtoes 13.7589
lfemur -25.9147 3.99182 -17.5263
ltibia 63.4198
lfoot -8.83557 -9.64384
ltoes -8.04152
567
root 15.1031 16.1702 -5.11398 172.91 86.7858 151.068
lowerback 25.158 -1.86928 2.17414
upperback 6.05967 -1.42785 -0.596674
thorax -7.33968 -0.513593 -1.49013
lowerneck 3.98432 -0.97369 0.0730607
upperneck -10.5466 -0.972429 2.37137
head -4.15125 -0.554254 0.823577
rclavicle -1.63749e-014 1.16662e-014
rhumerus -33.7396 -0.228014 -87.8018
rradius 32.1419
rwrist -2.55531
rhand -21.8545 -7.99992
rfingers 7.12502
rthumb 4.54924 -37.9311
lclavicle -1.63749e-014 1.16662e-014
lhumerus -33.7583 -1.78165 88.1557
lradius 30.2511
lwrist 25.1724
lhand -17.4103 8.38655
lfingers 7.12502
lthumb 8.83942 38.1814
rfemur -56.7634 6.57689 20.8289
rtibia 52.5046
rfoot -16.4671 -12.3286
rtoes 13.7345
lfemur -27.4757 4.09631 -17.3308
ltibia 64.1368
lfoot -9.50885 -9.88871
ltoes -9.01409
568
root 15.2404 16.1974 -5.09658 174.553 86.7692 152.51
lowerback 25.0771 -1.80786 2.14743
upperback 6.02497 -1.35775 -0.548639
thorax -7.3324 -0.48191 -1.44415
lowerneck 3.98174 -0.991978 0.0969049
upperneck -10.5383 -0.989593 2.42599
head -4.14752 -0.566143 0.838356
rclavicle -3.19795e-014 9.26834e-015
rhumerus -33.7658 -0.279507 -87.7573
rradius 32.116
rwrist -2.5585
rhand -21.9881 -8.04508
rfingers 7.12502
rthumb 4.4203 -37.9789
lclavicle -3.19795e-014 9.26834e-015
lhumerus -33.7864 -1.99207 88.3286
lradius 30.2361
lwrist 25.0889
lhand -17.0488 8.50617
lfingers 7.12502
lthumb 9.18824 38.286
rfemur -56.3152 6.39236 21.1354
rtibia 52.3639
rfoot -16.8086 -11.9883
rtoes 13.7733
lfemur -28.9981 4.22671 -17.2193
ltibia 64.7289
lfoot -10.2448 -9.9994
ltoes -10.234
569
root 15.3784 16.2226 -5.0815 175.564 86.7895 153.363
lowerback 25.0152 -1.73985 2.09582
upperback 6.00422 -1.28483 -0.513938
thorax -7.31904 -0.447832 -1.39923
lowerneck 3.9767 -1.00529 0.113313
upperneck -10.5284 -1.00116 2.4762
head -4.14278 -0.574731 0.852658
rclavicle 2.50717e-014 4.7932e-014
rhumerus -33.7917 -0.301877 -87.7227
rradius 32.0841
rwrist -2.56221
rhand -22.1066 -8.08165
rfingers 7.12502
rthumb 4.30582 -38.0179
lclavicle 2.50717e-014 4.7932e-014
lhumerus -33.84 -2.16846 88.481
lradius 30.2082
lwrist 25.0501
lhand -16.691 8.62958
lfingers 7.12502
lthumb 9.53351 38.3939
rfemur -55.8321 6.22366 21.4103
rtibia 52.2454
rfoot -17.1487 -11.6092
rtoes 13.8438
lfemur -30.4585 4.37675 -17.1843
ltibia 65.1985
lfoot -11.0068 -9.94749
ltoes -11.5399
570
root 15.518 16.246 -5.06916 176.053 86.8512 153.756
lowerback 24.9862 -1.66493 2.03639
upperback 6.0009 -1.20401 -0.497357
thorax -7.30319 -0.408982 -1.3719
lowerneck 3.97373 -1.02067 0.136836
upperneck -10.5167 -1.01611 2.51668
head -4.13781 -0.584871 0.862602
rclavicle 0 -1.635e-014
rhumerus -33.816 -0.306517 -87.6987
rradius 32.0406
rwrist -2.56862
rhand -22.1844 -8.11418
rfingers 7.12502
rthumb 4.23071 -38.0519
lclavicle 0 -1.635e-014
lhumerus -33.9225 -2.32327 88.6066
lradius 30.1719
lwrist 25.0561
lhand -16.3853 8.74872
lfingers 7.12502
lthumb 9.82845 38.4993
rfemur -55.2911 6.07376 21.6595
rtibia 52.1509
rfoot -17.486 -11.1982
rtoes 13.9209
lfemur -31.8283 4.54227 -17.217
ltibia 65.5509
lfoot -11.7411 -9.72595
ltoes -12.6788
571
root 15.6569 16.2667 -5.05834 176.447 86.9078 154.081
lowerback 24.9671 -1.60071 1.98548
upperback 6.00351 -1.13447 -0.487992
thorax -7.2867 -0.375276 -1.35383
lowerneck 3.97098 -1.03808 0.160685
upperneck -10.5065 -1.03453 2.55023
head -4.13335 -0.596442 0.870345
rclavicle 1.3244e-014 8.29926e-015
rhumerus -33.8364 -0.294416 -87.685
rradius 31.9856
rwrist -2.57354
rhand -22.2169 -8.13583
rfingers 7.12502
rthumb 4.19933 -38.0742
lclavicle 1.3244e-014 8.29926e-015
lhumerus -34.0251 -2.44123 88.7015
lradius 30.1235
lwrist 25.0871
lhand -16.124 8.88486
lfingers 7.12502
lthumb 10.0805 38.6234
rfemur -54.7432 5.91784 21.8926
rtibia 52.084
rfoot -17.8261 -10.7793
rtoes 14.0348
lfemur -33.1776 4.68567 -17.2905
ltibia 65.8094
lfoot -12.3716 -9.38047
ltoes -13.4084
572
root 15.7952 16.2845 -5.04868 177.043 86.9499 154.631
lowerback 24.956 -1.55298 1.9533
upperback 6.01216 -1.08043 -0.478125
thorax -7.26863 -0.348823 -1.34117
lowerneck 3.97299 -1.05659 0.179535
upperneck -10.5069 -1.05517 2.5774
head -4.13364 -0.608684 0.87712
rclavicle 1.25731e-014 1.15544e-014
rhumerus -33.8475 -0.259093 -87.6783
rradius 31.9122
rwrist -2.55729
rhand -22.2318 -8.13132
rfingers 7.12502
rthumb 4.1849 -38.07
lclavicle 1.25731e-014 1.15544e-014
lhumerus -34.1468 -2.514 88.7641
lradius 30.0669
lwrist 25.1212
lhand -15.9207 9.04066
lfingers 7.12502
lthumb 10.2767 38.7696
rfemur -54.1883 5.75661 22.1253
rtibia 52.0427
rfoot -18.1676 -10.3783
rtoes 14.1401
lfemur -34.5151 4.796 -17.382
ltibia 65.9861
lfoot -12.8731 -8.95365
ltoes -13.6662
573
root 15.9328 16.2991 -5.03993 178.094 86.9712 155.652
lowerback 24.9492 -1.52401 1.95408
upperback 6.02205 -1.04164 -0.465905
thorax -7.25256 -0.32994 -1.34015
lowerneck 3.97797 -1.07689 0.194323
upperneck -10.5147 -1.07829 2.60458
head -4.1371 -0.622024 0.884854
rclavicle 7.30534e-015 1.48095e-014
rhumerus -33.8565 -0.21945 -87.6764
rradius 31.8305
rwrist -2.53256
rhand -22.2005 -8.11232
rfingers 7.12502
rthumb 4.21515 -38.0504
lclavicle 7.30534e-015 1.48095e-014
lhumerus -34.2866 -2.55447 88.7946
lradius 29.9997
lwrist 25.1412
lhand -15.7683 9.22097
lfingers 7.12502
lthumb 10.4237 38.9426
rfemur -53.6351 5.59091 22.371
rtibia 52.0256
rfoot -18.5207 -9.99843
rtoes 14.3033
lfemur -35.8589 4.86649 -17.4719
ltibia 66.093
lfoot -13.2706 -8.50864
ltoes -13.5434
574
root 16.0697 16.3106 -5.03189 179.756 86.9693 157.298
lowerback 24.9454 -1.51448 1.99195
upperback 6.0336 -1.01749 -0.446116
thorax -7.23722 -0.318349 -1.34763
lowerneck 3.98234 -1.0968 0.209568
upperneck -10.5309 -1.10133 2.62405
head -4.14347 -0.634988 0.890017
rclavicle 2.38542e-015 4.57205e-015
rhumerus -33.865 -0.176518 -87.6747
rradius 31.747
rwrist -2.48831
rhand -22.1608 -8.07685
rfingers 7.12502
rthumb 4.25354 -38.0141
lclavicle 2.38542e-015 4.57205e-015
lhumerus -34.4385 -2.55979 88.7956
lradius 29.9234
lwrist 25.1306
lhand -15.6584 9.4168
lfingers 7.12502
lthumb 10.5297 39.1331
rfemur -53.0823 5.43016 22.6379
rtibia 52.029
rfoot -18.8834 -9.67452
rtoes 14.405
lfemur -37.2082 4.89964 -17.5475
ltibia 66.1336
lfoot -13.6195 -8.09248
ltoes -13.2168
575
root 16.2062 16.319 -5.02448 181.936 86.9444 159.475
lowerback 24.9452 -1.51931 2.06414
upperback 6.04536 -1.00236 -0.419779
thorax -7.22428 -0.311407 -1.36486
lowerneck 3.99152 -1.11942 0.222592
upperneck -10.5582 -1.12774 2.644
head -4.15473 -0.64961 0.896091
rclavicle 1.2921e-014 6.73383e-015
rhumerus -33.8751 -0.160217 -87.6604
rradius 31.6896
rwrist -2.49527
rhand -22.0217 -8.10068
rfingers 7.12502
rthumb 4.38782 -38.0352
lclavicle 1.2921e-014 6.73383e-015
lhumerus -34.5945 -2.5384 88.771
lradius 29.8244
lwrist 25.0765
lhand -15.5844 9.60843
lfingers 7.12502
lthumb 10.601 39.321
rfemur -52.5302 5.28324 22.9234
rtibia 52.0533
rfoot -19.2635 -9.41863
rtoes 14.4291
lfemur -38.5618 4.90162 -17.6101
ltibia 66.1096
lfoot -13.9733 -7.70922
ltoes -12.8832
576
root 16.3423 16.324 -5.01762 184.5 86.8999 162.045
lowerback 24.9463 -1.53341 2.16476
upperback 6.05535 -0.99159 -0.388383
thorax -7.21447 -0.306941 -1.3915
lowerneck 4.00227 -1.14296 0.239852
upperneck -10.5912 -1.15517 2.66032
head -4.16841 -0.664754 0.900348
rclavicle -1.09083e-014 -2.50966e-014
rhumerus -33.8911 -0.172388 -87.6341
rradius 31.6566
rwrist -2.54843
rhand -21.8072 -8.16841
rfingers 7.12502
rthumb 4.59494 -38.0986
lclavicle -1.09083e-014 -2.50966e-014
lhumerus -34.7506 -2.50237 88.7238
lradius 29.6991
lwrist 24.9784
lhand -15.5449 9.75416
lfingers 7.12502
lthumb 10.6392 39.4648
rfemur -51.9849 5.15799 23.2234
rtibia 52.1008
rfoot -19.6752 -9.22767
rtoes 14.4058
lfemur -39.9214 4.88422 -17.6644
ltibia 66.0221
lfoot -14.3447 -7.36745
ltoes -12.5969
577
root 16.4782 16.3256 -5.01131 187.142 86.8438 164.702
lowerback 24.9502 -1.55189 2.27621
upperback 6.06481 -0.983433 -0.354907
thorax -7.20691 -0.303836 -1.42125
lowerneck 4.00947 -1.16543 0.258253
upperneck -10.6253 -1.18109 2.67558
head -4.18175 -0.679105 0.903953
rclavicle 1.03865e-014 2.1593e-014
rhumerus -33.9164 -0.209879 -87.5959
rradius 31.6542
rwrist -2.64556
rhand -21.5251 -8.28645
rfingers 7.12502
rthumb 4.86736 -38.2105
lclavicle 1.03865e-014 2.1593e-014
lhumerus -34.8997 -2.44289 88.6548
lradius 29.5441
lwrist 24.8334
lhand -15.5298 9.86941
lfingers 7.12502
lthumb 10.6537 39.5793
rfemur -51.4448 5.06226 23.5223
rtibia 52.1753
rfoot -20.1032 -9.1057
rtoes 14.2467
lfemur -41.2761 4.85598 -17.7279
ltibia 65.8684
lfoot -14.7379 -7.04238
ltoes -12.4679
578
root 16.614 16.3241 -5.00556 189.639 86.7813 167.225
lowerback 24.958 -1.57036 2.38686
upperback 6.07318 -0.975369 -0.321868
thorax -7.20247 -0.300782 -1.45096
lowerneck 4.01548 -1.18601 0.27624
upperneck -10.6603 -1.20451 2.68992
head -4.19525 -0.692135 0.907208
rclavicle 3.57812e-015 -4.44781e-015
rhumerus -33.9499 -0.260922 -87.5482
rradius 31.6699
rwrist -2.77585
rhand -21.2026 -8.44415
rfingers 7.12502
rthumb 5.17877 -38.3609
lclavicle 3.57812e-015 -4.44781e-015
lhumerus -35.0407 -2.36278 88.5667
lradius 29.3616
lwrist 24.6471
lhand -15.5406 9.91778
lfingers 7.12502
lthumb 10.6433 39.6282
rfemur -50.9098 4.99681 23.8072
rtibia 52.2783
rfoot -20.566 -9.02339
rtoes 14.0653
lfemur -42.6213 4.82354 -17.8151
ltibia 65.6454
lfoot -15.1587 -6.72317
ltoes -12.5791
